# xmcd
#
# Track frame offsets:
#       150
#       19112
#       46802
#       67437
#       85610
#       105197
#       120690
#       134192
#       154872
#       174370
#
# Disc length: 2895 seconds
#
# Revision: 10
# Processed by: cddbd v1.5.2PL0 Copyright (c) Steve Scherf et al.
# Submitted via: WaveLab 4.01
#
DISCID=810b4d0a
DTITLE=Cowboy Junkies - Miles From Our Home
DYEAR=1998
DGENRE=Alternative
TTITLE0=New Dawn Coming
TTITLE1=Blue Guitar
TTITLE2=Miles from Our Home
TTITLE3=Good Friday
TTITLE4=Darkling Days
TTITLE5=Hollow as a Bone
TTITLE6=Someone Out There
TTITLE7=The Summer of Discontent
TTITLE8=No Birds Today
TTITLE9=Those Final Feet
EXTD=
EXTT0=
EXTT1=
EXTT2=
EXTT3=
EXTT4=
EXTT5=
EXTT6=
EXTT7=
EXTT8=
EXTT9=
PLAYORDER=
